<?xml version="1.0" encoding="UTF-8" standalone="no"?>
<!-- Created with Inkscape (http://www.inkscape.org/) -->

<svg
   xmlns:dc="http://purl.org/dc/elements/1.1/"
   xmlns:cc="http://creativecommons.org/ns#"
   xmlns:rdf="http://www.w3.org/1999/02/22-rdf-syntax-ns#"
   xmlns:svg="http://www.w3.org/2000/svg"
   xmlns="http://www.w3.org/2000/svg"
   xmlns:sodipodi="http://sodipodi.sourceforge.net/DTD/sodipodi-0.dtd"
   xmlns:inkscape="http://www.inkscape.org/namespaces/inkscape"
   width="210mm"
   height="210mm"
   viewBox="0 0 744.09449 744.09448"
   id="svg4773"
   version="1.1"
   inkscape:version="0.91 r13725"
   sodipodi:docname="nextButton.svg">
  <defs
     id="defs4775" />
  <sodipodi:namedview
     id="base"
     pagecolor="#ffffff"
     bordercolor="#666666"
     borderopacity="1.0"
     inkscape:pageopacity="0.0"
     inkscape:pageshadow="2"
     inkscape:zoom="0.49497475"
     inkscape:cx="196.3012"
     inkscape:cy="629.38551"
     inkscape:document-units="px"
     inkscape:current-layer="g4139"
     showgrid="false"
     inkscape:window-width="1536"
     inkscape:window-height="801"
     inkscape:window-x="-8"
     inkscape:window-y="-8"
     inkscape:window-maximized="1" />
  <metadata
     id="metadata4778">
    <rdf:RDF>
      <cc:Work
         rdf:about="">
        <dc:format>image/svg+xml</dc:format>
        <dc:type
           rdf:resource="http://purl.org/dc/dcmitype/StillImage" />
        <dc:title></dc:title>
      </cc:Work>
    </rdf:RDF>
  </metadata>
  <g
     inkscape:label="Layer 1"
     inkscape:groupmode="layer"
     id="layer1"
     transform="translate(0,-308.26772)">
    <g
       transform="matrix(20.71159,0,0,20.71159,-240.77102,81.50518)"
       id="g4139">
      <polygon
         style="fill:#1e88e5;fill-opacity:1"
         points="14,14 36,29 14,44 14,29.273 "
         id="polygon4141" />
      <path
         inkscape:connector-curvature="0"
         style="fill:#1e88e5;fill-opacity:1"
         d="M 14,45 C 13.84,45 13.679,44.962 13.533,44.884 13.205,44.711 13,44.371 13,44 l 0,-30 c 0,-0.371 0.205,-0.711 0.533,-0.884 0.327,-0.174 0.724,-0.15 1.031,0.058 l 22,15 C 36.836,28.36 37,28.669 37,29 c 0,0.331 -0.164,0.64 -0.437,0.826 l -22,15 C 14.394,44.941 14.197,45 14,45 Z M 15,15.893 15,42.108 34.225,29 15,15.893 Z"
         id="path4143" />
    </g>
    <g
       transform="matrix(20.71159,0,0,20.71159,-240.77102,81.50518)"
       id="g4145"
       style="fill:#1e88e5;fill-opacity:1">
      <rect
         x="40"
         y="14"
         style="fill:#1e88e5;fill-opacity:1"
         width="5"
         height="30"
         id="rect4147" />
      <path
         inkscape:connector-curvature="0"
         style="fill:#1e88e5;fill-opacity:1"
         d="m 46,45 -7,0 0,-32 7,0 0,32 z m -5,-2 3,0 0,-28 -3,0 0,28 z"
         id="path4149" />
    </g>
  </g>
</svg>
