<?xml version="1.0" encoding="UTF-8" standalone="no"?>
<!-- Created with Inkscape (http://www.inkscape.org/) -->

<svg
   xmlns:dc="http://purl.org/dc/elements/1.1/"
   xmlns:cc="http://creativecommons.org/ns#"
   xmlns:rdf="http://www.w3.org/1999/02/22-rdf-syntax-ns#"
   xmlns:svg="http://www.w3.org/2000/svg"
   xmlns="http://www.w3.org/2000/svg"
   xmlns:sodipodi="http://sodipodi.sourceforge.net/DTD/sodipodi-0.dtd"
   xmlns:inkscape="http://www.inkscape.org/namespaces/inkscape"
   width="210mm"
   height="210mm"
   viewBox="0 0 744.09449 744.09448"
   id="svg4201"
   version="1.1"
   inkscape:version="0.91 r13725"
   sodipodi:docname="previousButton.svg">
  <defs
     id="defs4203" />
  <sodipodi:namedview
     id="base"
     pagecolor="#ffffff"
     bordercolor="#666666"
     borderopacity="1.0"
     inkscape:pageopacity="0.0"
     inkscape:pageshadow="2"
     inkscape:zoom="0.7"
     inkscape:cx="303.83999"
     inkscape:cy="454.71506"
     inkscape:document-units="px"
     inkscape:current-layer="layer1"
     showgrid="false"
     inkscape:window-width="1536"
     inkscape:window-height="801"
     inkscape:window-x="-8"
     inkscape:window-y="-8"
     inkscape:window-maximized="1" />
  <metadata
     id="metadata4206">
    <rdf:RDF>
      <cc:Work
         rdf:about="">
        <dc:format>image/svg+xml</dc:format>
        <dc:type
           rdf:resource="http://purl.org/dc/dcmitype/StillImage" />
        <dc:title />
      </cc:Work>
    </rdf:RDF>
  </metadata>
  <g
     inkscape:label="Layer 1"
     inkscape:groupmode="layer"
     id="layer1"
     transform="translate(0,-308.26772)">
    <g
       transform="matrix(21.990781,0,0,21.990781,-251.9106,45.28736)"
       id="g4139"
       style="fill:#1e88e5;fill-opacity:1">
      <polygon
         style="fill:#1e88e5;fill-opacity:1"
         points="22,29 44,44 44,29.273 44,14 "
         id="polygon4141" />
      <path
         inkscape:connector-curvature="0"
         style="fill:#1e88e5;fill-opacity:1"
         d="m 44,45 c -0.197,0 -0.394,-0.059 -0.563,-0.174 l -22,-15 C 21.164,29.64 21,29.331 21,29 c 0,-0.331 0.164,-0.64 0.437,-0.826 l 22,-15 c 0.308,-0.208 0.705,-0.231 1.031,-0.058 C 44.795,13.289 45,13.629 45,14 l 0,30 c 0,0.371 -0.205,0.711 -0.533,0.884 C 44.321,44.962 44.16,45 44,45 Z M 23.775,29 43,42.107 43,15.893 23.775,29 Z"
         id="path4143" />
    </g>
    <g
       transform="matrix(21.990781,0,0,21.990781,-251.9106,45.28736)"
       id="g4145"
       style="fill:#1e88e5;fill-opacity:1">
      <rect
         x="13"
         y="14"
         style="fill:#1e88e5;fill-opacity:1"
         width="5"
         height="30"
         id="rect4147" />
      <path
         inkscape:connector-curvature="0"
         style="fill:#1e88e5;fill-opacity:1"
         d="m 19,45 -7,0 0,-32 7,0 0,32 z m -5,-2 3,0 0,-28 -3,0 0,28 z"
         id="path4149" />
    </g>
  </g>
</svg>
